<svg xmlns="http://www.w3.org/2000/svg" viewBox="0 0 512 512"><path d="M 42,42 V 54 H 150 V 42 Z m 214,0 c -11.96534,0 -23.18236,5.602952 -30.4082,15.210938 L 189,106 H 48 c -21.091195,0 -38,16.90881 -38,38 v 288 c 0,21.09119 16.908805,38 38,38 h 416 c 21.09119,0 38,-16.90881 38,-38 V 80 C 502,58.908809 485.09119,42 464,42 Z m 0,12 h 208 c 14.25455,0 26,11.745456 26,26 v 32.66211 l -13.21875,-4.49414 C 472.72723,106.7896 468.40952,106 464,106 H 224 204 L 235.19922,64.400391 C 240.11922,57.840391 247.8,54 256,54 Z M 48,118 h 416 c 14.25455,0 26,11.74545 26,26 v 288 c 0,14.25455 -11.74545,26 -26,26 H 48 C 33.745455,458 22,446.25455 22,432 V 144 c 0,-14.25455 11.745455,-26 26,-26 z m 208,60 c -60.78207,0 -110,49.21793 -110,110 0,60.78207 49.21793,110 110,110 60.78207,0 110,-49.21793 110,-110 0,-60.78207 -49.21793,-110 -110,-110 z m 0,12 c 53.92955,0 98,44.07045 98,98 0,53.92955 -44.07045,98 -98,98 -53.92955,0 -98,-44.07045 -98,-98 0,-53.92955 44.07045,-98 98,-98 z m 0,44 c -29.87979,0 -54,24.12021 -54,54 0,3.34545 2.65455,6 6,6 3.34545,0 6,-2.65455 6,-6 0,-23.05455 18.94545,-42 42,-42 3.34545,0 6,-2.65455 6,-6 0,-3.34545 -2.65455,-6 -6,-6 z" /></svg>
