<?xml version="1.0" encoding="UTF-8" standalone="no"?>
<!-- Created with Inkscape (http://www.inkscape.org/) -->

<svg
   xmlns:dc="http://purl.org/dc/elements/1.1/"
   xmlns:cc="http://creativecommons.org/ns#"
   xmlns:rdf="http://www.w3.org/1999/02/22-rdf-syntax-ns#"
   xmlns:svg="http://www.w3.org/2000/svg"
   xmlns="http://www.w3.org/2000/svg"
   xmlns:sodipodi="http://sodipodi.sourceforge.net/DTD/sodipodi-0.dtd"
   xmlns:inkscape="http://www.inkscape.org/namespaces/inkscape"
   width="142.83727mm"
   height="78.865387mm"
   viewBox="0 0 142.83727 78.865387"
   version="1.1"
   id="svg8"
   inkscape:version="0.92.2 (5c3e80d, 2017-08-06)"
   sodipodi:docname="logo-base.svg">
  <defs
     id="defs2" />
  <sodipodi:namedview
     id="base"
     pagecolor="#ffffff"
     bordercolor="#666666"
     borderopacity="1.0"
     inkscape:pageopacity="0.0"
     inkscape:pageshadow="2"
     inkscape:zoom="0.98994949"
     inkscape:cx="201.20758"
     inkscape:cy="259.34153"
     inkscape:document-units="mm"
     inkscape:current-layer="g982"
     showgrid="false"
     showguides="false"
     inkscape:window-width="1920"
     inkscape:window-height="1017"
     inkscape:window-x="1912"
     inkscape:window-y="-8"
     inkscape:window-maximized="1"
     fit-margin-top="10"
     fit-margin-left="10"
     fit-margin-right="10"
     fit-margin-bottom="10" />
  <metadata
     id="metadata5">
    <rdf:RDF>
      <cc:Work
         rdf:about="">
        <dc:format>image/svg+xml</dc:format>
        <dc:type
           rdf:resource="http://purl.org/dc/dcmitype/StillImage" />
        <dc:title></dc:title>
      </cc:Work>
    </rdf:RDF>
  </metadata>
  <g
     inkscape:label="Calque 1"
     inkscape:groupmode="layer"
     id="layer1"
     transform="translate(10,-228.13461)">
    <g
       id="g982"
       style="fill:#000000">
      <path
         style="fill:#000000;stroke-width:0.131396"
         inkscape:connector-curvature="0"
         d="M 59.76717,241.55092 V 238.923 c 0,-0.43361 0.35477,-0.78839 0.78838,-0.78839 h 15.24194 c 0.4336,0 0.78837,0.35478 0.78837,0.78839 v 2.62792 c 0,0.4336 -0.35477,0.78837 -0.78837,0.78837 H 60.55555 c -0.43361,0 -0.78838,-0.35477 -0.78838,-0.78837 z m 45.20023,30.22106 c 0,-8.69842 -7.06911,-15.7675 -15.76752,-15.7675 -8.69842,0 -15.76752,7.06908 -15.76752,15.7675 0,8.69842 7.0691,15.76752 15.76752,15.76752 8.69841,0 15.76752,-7.0691 15.76752,-15.76752 z m -4.20467,0 c 0,6.37271 -5.19014,11.56285 -11.56285,11.56285 -6.37271,0 -11.56285,-5.19014 -11.56285,-11.56285 0,-6.3727 5.19014,-11.56284 11.56285,-11.56284 6.37271,0 11.56285,5.19014 11.56285,11.56284 z m -15.76752,0 c 0,-2.31257 1.8921,-4.20467 4.20467,-4.20467 1.15628,0 2.10234,-0.94605 2.10234,-2.10234 0,-1.15627 -0.94606,-2.10233 -2.10234,-2.10233 -4.63828,0 -8.40935,3.77106 -8.40935,8.40934 0,1.15629 0.94605,2.10233 2.10234,2.10233 1.15629,0 2.10234,-0.94604 2.10234,-2.10233 z m 37.84206,-27.33035 v 46.25138 c 0,3.48199 -2.82502,6.30699 -6.30702,6.30699 H 61.86951 c -3.482,0 -6.30701,-2.825 -6.30701,-6.30699 v -37.84204 c 0,-3.48199 2.82501,-6.30701 6.30701,-6.30701 h 17.86986 l 4.4149,-5.88654 c 1.19571,-1.58991 3.06153,-2.52281 5.04561,-2.52281 h 27.33037 c 3.482,0 6.30702,2.82502 6.30702,6.30702 z m -37.84206,2.10233 h 31.53504 c 0.73581,0 1.44535,0.13134 2.10234,0.35477 v -2.4571 c 0,-1.15629 -0.94606,-2.10234 -2.10234,-2.10234 H 89.19988 c -0.65698,0 -1.28768,0.31535 -1.68187,0.84094 z m 33.63738,6.30701 c 0,-1.1563 -0.94606,-2.10235 -2.10234,-2.10235 H 61.86951 c -1.15629,0 -2.10234,0.94605 -2.10234,2.10235 v 37.84204 c 0,1.15627 0.94605,2.10233 2.10234,2.10233 h 54.66074 c 1.15628,0 2.10234,-0.94606 2.10234,-2.10233 z"
         id="path1366" />
      <rect
         y="289.0625"
         x="34.687496"
         height="2.6458333"
         width="13.229167"
         id="rect839-9"
         style="fill:#000000;fill-opacity:1;stroke:none;stroke-width:0.01355712;stroke-miterlimit:4;stroke-dasharray:none;stroke-opacity:1" />
      <rect
         y="281.125"
         x="21.458332"
         height="2.6458333"
         width="26.458334"
         id="rect839-9-0"
         style="fill:#000000;fill-opacity:1;stroke:none;stroke-width:0.01917266;stroke-miterlimit:4;stroke-dasharray:none;stroke-opacity:1" />
      <rect
         y="273.1875"
         x="8.2291641"
         height="2.6458333"
         width="39.6875"
         id="rect839-9-0-2"
         style="fill:#000000;fill-opacity:1;stroke:none;stroke-width:0.02348162;stroke-miterlimit:4;stroke-dasharray:none;stroke-opacity:1" />
      <rect
         y="265.25"
         x="-5"
         height="2.6458333"
         width="52.916668"
         id="rect839-9-8"
         style="fill:#000000;fill-opacity:1;stroke:none;stroke-width:0.02711424;stroke-miterlimit:4;stroke-dasharray:none;stroke-opacity:1" />
      <rect
         y="257.3125"
         x="8.2291641"
         height="2.6458333"
         width="39.6875"
         id="rect839-9-0-8"
         style="fill:#000000;fill-opacity:1;stroke:none;stroke-width:0.02348162;stroke-miterlimit:4;stroke-dasharray:none;stroke-opacity:1" />
      <rect
         y="249.375"
         x="21.458332"
         height="2.6458333"
         width="26.458334"
         id="rect839-9-0-2-7"
         style="fill:#000000;fill-opacity:1;stroke:none;stroke-width:0.01917266;stroke-miterlimit:4;stroke-dasharray:none;stroke-opacity:1" />
    </g>
  </g>
</svg>
