<?xml version="1.0" encoding="UTF-8" standalone="no"?>
<!-- Created with Inkscape (http://www.inkscape.org/) -->

<svg
   xmlns:dc="http://purl.org/dc/elements/1.1/"
   xmlns:cc="http://creativecommons.org/ns#"
   xmlns:rdf="http://www.w3.org/1999/02/22-rdf-syntax-ns#"
   xmlns:svg="http://www.w3.org/2000/svg"
   xmlns="http://www.w3.org/2000/svg"
   xmlns:sodipodi="http://sodipodi.sourceforge.net/DTD/sodipodi-0.dtd"
   xmlns:inkscape="http://www.inkscape.org/namespaces/inkscape"
   width="1185.1191"
   height="262.86722"
   viewBox="0 0 313.56276 69.550287"
   version="1.1"
   id="svg821"
   inkscape:version="0.92.2 (5c3e80d, 2017-08-06)"
   sodipodi:docname="logo.svg">
  <defs
     id="defs815" />
  <sodipodi:namedview
     id="base"
     pagecolor="#ffffff"
     bordercolor="#666666"
     borderopacity="1.0"
     inkscape:pageopacity="0.0"
     inkscape:pageshadow="2"
     inkscape:zoom="0.98994949"
     inkscape:cx="357.15088"
     inkscape:cy="105.37797"
     inkscape:document-units="mm"
     inkscape:current-layer="layer1"
     showgrid="false"
     units="px"
     inkscape:window-width="1920"
     inkscape:window-height="1017"
     inkscape:window-x="1912"
     inkscape:window-y="-8"
     inkscape:window-maximized="1"
     fit-margin-top="20"
     fit-margin-left="20"
     fit-margin-right="20"
     fit-margin-bottom="20" />
  <metadata
     id="metadata818">
    <rdf:RDF>
      <cc:Work
         rdf:about="">
        <dc:format>image/svg+xml</dc:format>
        <dc:type
           rdf:resource="http://purl.org/dc/dcmitype/StillImage" />
        <dc:title />
      </cc:Work>
    </rdf:RDF>
  </metadata>
  <g
     inkscape:label="Calque 1"
     inkscape:groupmode="layer"
     id="layer1"
     transform="translate(32.976157,-193.28139)">
    <g
       id="g842"
       style="fill:#ffffff">
      <path
         sodipodi:nodetypes="cccsccsccccczscccsccccccccssccccsccccsccssscccccccccccccscsccccccsccccccccccccccccc"
         d="m 165.28978,226.50466 c -0.82917,1.12527 -1.92483,2.39862 -3.287,3.82001 -1.36216,1.42138 -3.10929,2.81317 -5.24138,4.17533 -2.07286,1.30295 -4.5603,2.45784 -7.46229,3.46465 -2.902,1.00681 -6.2482,1.65829 -10.0386,1.95442 -0.4738,0.0592 -0.76991,-0.0296 -0.88836,-0.26651 -0.11841,-0.2369 -0.0888,-0.56266 0.0888,-0.97721 0.17768,-0.41456 0.4146,-0.82914 0.71071,-1.24373 0.2961,-0.47378 0.59224,-0.88836 0.88837,-1.2437 0.35534,-0.41459 0.62186,-0.74033 0.79954,-0.97721 0.17766,-0.17767 0.38495,-0.32574 0.62183,-0.4442 3.5535,-1.48061 6.63317,-3.02046 9.23907,-4.61952 2.66511,-1.59907 6.03356,-4.37588 8.55773,-8.95795 2.52416,-4.58208 3.83584,-9.06687 1.49811,-12.42681 -2.48304,-3.5688 -10.18668,-4.85432 -19.56147,-1.53524 -1.4214,0.7107 -2.69474,1.42141 -3.82001,2.13208 -1.06604,0.7107 -1.98402,1.39179 -2.75394,2.04326 -0.7107,0.59224 -1.21411,1.03644 -1.51022,1.33255 -0.11842,0.11833 -0.2073,0.17768 -0.26653,0.17768 -2.54666,2.25055 -4.61952,4.58991 -6.21859,7.01813 -1.53984,2.36898 -2.81317,4.41223 -3.81999,6.12974 l -1.15488,1.77674 v 0.0889 h 0.0888 c 0.90157,-0.36505 6.21114,2.6373 8.43949,4.97492 0.88836,-1.89518 1.77673,-3.70153 2.6651,-5.41906 0.94761,-1.77672 1.80637,-3.37579 2.57628,-4.79718 0.76993,-1.42139 1.45102,-2.6355 2.04327,-3.64232 0.59224,-1.0068 1.03644,-1.74711 1.33255,-2.22091 0,-0.0592 0.0295,-0.0889 0.0888,-0.0889 0.17768,-0.29611 0.50341,-0.53301 0.97722,-0.71069 h 0.17767 c 0.0592,-0.0592 0.11833,-0.0889 0.17768,-0.0889 h 0.0889 c 0.47381,-0.1185 1.03645,-0.2369 1.68792,-0.35536 0.65147,-0.17768 1.39177,-0.32572 2.22092,-0.44418 0.41457,-0.0592 0.79954,-0.0889 1.15489,-0.0889 0.41456,-0.0592 0.85873,-0.0889 1.33255,-0.0889 0.4738,0 0.88837,0.0296 1.24373,0.0889 0.41457,0 0.76991,0.0296 1.06604,0.0889 h 0.0889 c 0.2369,0 0.35534,0.0889 0.35534,0.2665 v 0.17768 c 0,0.0592 -0.0296,0.11832 -0.0889,0.17768 -0.4738,0.71069 -1.33255,2.04325 -2.57626,3.99767 -1.18449,1.95441 -2.57628,4.26417 -4.17535,6.92928 -1.53983,2.60588 -3.16852,5.41907 -4.88603,8.43952 -2.41983,4.5242 -4.24478,7.74645 -5.95203,11.99301 -0.35535,0.82913 -0.68109,1.62867 -0.97722,2.39858 v 0.0889 h -0.0888 v 0.0889 c -0.17767,0.53303 -0.38495,1.06606 -0.62186,1.59909 -0.33108,1.21067 -0.62142,1.87194 -0.97721,3.64231 -0.11844,0.53302 -0.20729,1.03643 -0.26651,1.51021 -0.11846,0.35536 -0.29612,0.56265 -0.53302,0.62188 -0.17767,0.11849 -0.35535,0.17768 -0.53302,0.17768 h -0.0888 c -1.1845,-0.11832 -2.13209,-0.41458 -2.84279,-0.88838 -0.7107,-0.4738 -1.24372,-0.91799 -1.59907,-1.33255 0,-0.0592 -0.0296,-0.11833 -0.0888,-0.17768 -0.23689,-0.53303 -0.29612,-1.00681 -0.17767,-1.42141 0.11845,-0.71067 0.2369,-1.48058 0.35535,-2.30974 0.53713,-3.32479 1.47912,-5.8544 3.10932,-9.68326 1.1431,0.54125 2.25857,1.9158 3.1981,3.02061 -0.41457,-1.00683 -0.82914,-1.92481 -1.24371,-2.75397 -0.41457,-0.82915 -0.76992,-1.48062 -1.06605,-1.9544 0,-0.0592 -0.0296,-0.0889 -0.0888,-0.0889 v -0.0889 l -0.0888,-0.0889 c -0.11844,-0.11832 -0.20728,-0.23689 -0.2665,-0.35535 -0.0592,-0.11833 -0.11845,-0.23689 -0.17768,-0.35534 -1.36217,-2.19131 -2.99085,-3.93843 -4.88604,-5.24137 -1.83597,-1.36216 -3.46465,-2.45783 -4.88604,-3.28699 l -1.42139,-0.88838 c -1.36217,-0.88837 -1.71752,-2.63549 -1.06605,-5.24137 0.11847,-0.4738 0.26651,-0.94759 0.44419,-1.42139 l 0.71069,-1.59906 c 1.77675,-3.19814 3.61271,-5.89287 5.5079,-8.08416 5.52028,-6.88395 12.51025,-11.95778 20.32269,-13.98412 6.31985,-0.72683 11.88094,-0.78724 17.1977,1.57162 10.40416,5.24135 13.30038,14.49744 6.63167,25.91577 z"
         style="font-style:normal;font-variant:normal;font-weight:normal;font-stretch:normal;font-size:medium;line-height:1.25;font-family:'Atlantic Bentley';-inkscape-font-specification:'Atlantic Bentley';letter-spacing:0px;word-spacing:0px;fill:#ffffff;fill-opacity:1;stroke:none;stroke-width:2.22092557"
         id="path815"
         inkscape:connector-curvature="0" />
      <path
         sodipodi:nodetypes="cccccccccssccccccccscsccccccccscccccccccscscccccccsccccccccccccsccccccsccccccccscccccccscccccccccsccccccccccccsccccssccccccccccccccccccccc"
         d="m 180.5739,236.8986 c 0.23689,-0.35534 0.44418,-0.74029 0.62186,-1.15488 0.17768,-0.41457 0.38495,-0.82915 0.62184,-1.24372 l 0.53304,-1.42139 h 0.0889 v -0.17768 l 0.44417,-0.9772 v -0.0889 l 0.17768,-0.35536 c 0.11833,-0.29613 0.29613,-0.4442 0.53302,-0.4442 0.17768,0 0.29613,0.0296 0.35536,0.0889 l 0.0889,0.0889 c 0.41459,0.29613 0.82917,0.79954 1.24373,1.51023 0.41456,0.71071 0.68107,1.71752 0.79953,3.02046 v 0.4442 c -0.2369,0.47379 -0.44418,0.94758 -0.62186,1.42138 -0.17767,0.4738 -0.38495,0.94759 -0.62184,1.42139 l -0.7107,1.33256 c -1.57432,6.95397 -8.75827,12.67625 -14.30283,12.7926 h -0.62186 c -0.17768,0 -0.35533,-0.0296 -0.53301,-0.0889 l -0.53302,-0.0889 c -0.35536,-0.0592 -0.76993,-0.20729 -1.24373,-0.44418 -0.53302,-0.17768 -1.09567,-0.47381 -1.6879,-0.88838 -0.59225,-0.35534 -1.09565,-0.88837 -1.51024,-1.59908 -1.48061,-2.25052 -1.51023,-5.53749 -0.0889,-9.86089 0,-0.0592 0.0296,-0.17768 0.0889,-0.35535 0.0592,-0.11832 0.11832,-0.26652 0.17768,-0.44417 0.0592,-0.17768 0.14812,-0.41459 0.26652,-0.71072 l 0.53301,-1.33253 c 0.35535,-1.00683 0.89818,-2.2161 1.59907,-3.64232 2.93307,-5.96833 3.6884,-9.42813 10.30513,-6.04099 0.0925,1.25194 -0.6022,2.20275 -1.33254,3.73121 -1.99141,3.6812 -3.76108,8.31905 -4.53072,13.59206 -0.0593,0.82916 0.0592,1.36217 0.35534,1.59907 0.17768,0.17768 0.4442,0.26651 0.79956,0.26651 3.675,-0.85533 5.92852,-5.02015 7.55114,-7.72883 l 0.2665,0.26654 v -0.0889 c 0.17768,0.11832 0.32574,0.0592 0.44417,-0.17768 v -0.2665 c 0,-0.0592 -0.0296,-0.0889 -0.0889,-0.0889 0,-0.0592 -0.0296,-0.0889 -0.0889,-0.0889 -0.0592,0 -0.11832,0.0296 -0.17767,0.0889 h -0.0889 -0.0889 c 0,0.0593 0.0592,-0.0296 0.17768,-0.26649 l 0.533,-1.06606 h 0.0889 v 0.0889 h 0.17768 c 0.0592,0 0.14812,-0.0592 0.2665,-0.17766 0,-0.17768 -0.0296,-0.29614 -0.0889,-0.35536 h -0.0889 v -0.0889 z m -5.59674,-11.90415 -0.53302,-0.0889 c -0.35534,-0.11832 -0.74031,-0.29613 -1.15489,-0.53303 -0.35533,-0.23688 -0.68108,-0.59224 -0.97719,-1.06605 -0.29612,-0.47378 -0.41457,-1.12525 -0.35536,-1.95439 0.0592,-0.76993 0.23692,-1.56946 0.53304,-2.39862 0.35534,-0.82914 0.76991,-1.59905 1.24371,-2.30976 1.00681,-1.48061 2.04326,-2.22093 3.1093,-2.22093 1.00681,0 1.86558,0.59226 2.57628,1.77675 0.47378,0.65147 0.79951,1.42139 0.97719,2.30976 0.2369,0.88838 0.17768,1.71753 -0.17768,2.48744 l -0.2665,0.7107 c -0.17768,0.41457 -0.4738,0.88835 -0.88837,1.42138 -0.35534,0.47381 -0.82915,0.91798 -1.4214,1.33255 -0.59223,0.41459 -1.27331,0.62188 -2.04326,0.62188 -0.29611,0 -0.50339,-0.0296 -0.62185,-0.0889 z m 8.70603,11.01579 c 0,0.11833 -0.0296,0.2369 -0.0889,0.35534 v 0.0889 l 0.0889,0.0889 v 0.0889 l 0.0889,0.0889 h 0.0889 c 0.0593,0 0.0889,-0.0296 0.0889,-0.0889 h 0.0889 v -0.0889 c 0.0592,0 0.0889,-0.0592 0.0889,-0.17768 -0.1185,-0.11832 -0.17768,-0.26651 -0.17768,-0.44417 h -0.0889 v -0.0889 h -0.0889 c -0.0592,0 -0.0889,0.0592 -0.0889,0.17768 z m -2.57627,2.22093 c -0.0592,0 -0.0889,0.0296 -0.0889,0.0889 h -0.0889 l -0.0889,0.0889 h -0.0889 l 0.0889,0.17767 0.0889,0.0889 h 0.0889 c 0.0592,0 0.11832,-0.0296 0.17768,-0.0889 l 0.0889,-0.17767 v -0.0889 l -0.0889,-0.17768 z m 1.4214,-3.1093 c 0,0.0592 0.0296,0.0889 0.0889,0.0889 v 0.0889 c 0.0592,0 0.0889,-0.0296 0.0889,-0.0889 0.0592,0 0.11833,-0.0296 0.17768,-0.0889 v -0.17768 l -0.0889,-0.0889 h -0.0889 c -0.0593,0 -0.0889,0.0296 -0.0889,0.0889 h -0.0889 z m -2.22094,5.7744 c -0.0592,0 -0.0889,0.0296 -0.0889,0.0889 0,0.11832 0.0296,0.17766 0.0889,0.17766 h 0.17768 v -0.0889 h 0.0889 l -0.17768,-0.26651 h -0.0889 z m 3.37581,-7.28465 h 0.0889 v 0.0889 c 0.0592,0 0.0889,0.0296 0.0889,0.0889 0.0593,0 0.0889,-0.0296 0.0889,-0.0889 h 0.0889 v -0.0889 l -0.0889,-0.17765 h -0.17768 c 0,0.0592 -0.0296,0.0889 -0.0889,0.0889 z m -4.17535,5.2414 0.0889,-0.0889 v 0.0889 z"
         style="font-style:normal;font-variant:normal;font-weight:normal;font-stretch:normal;font-size:medium;line-height:1.25;font-family:'Atlantic Bentley';-inkscape-font-specification:'Atlantic Bentley';letter-spacing:0px;word-spacing:0px;fill:#ffffff;fill-opacity:1;stroke:none;stroke-width:2.22092557"
         id="path817"
         inkscape:connector-curvature="0" />
      <path
         sodipodi:nodetypes="ccscccccsccccscsccsccccccsccccccccccccsscccsccccc"
         d="m 188.01679,226.86002 c 0.94759,-0.53303 1.95439,-0.94759 3.02045,-1.24372 1.06604,-0.29612 2.01364,-0.44419 2.8428,-0.44419 0.29611,0 0.59223,0.0296 0.88834,0.0889 0.29614,0 0.59227,0.0296 0.88838,0.0889 0.88837,0.23688 1.56944,0.59224 2.04325,1.06605 0.53303,0.47381 0.91799,1.0068 1.15488,1.59906 0.29612,0.53301 0.47378,1.09566 0.53304,1.6879 0.11832,0.53304 0.17766,0.97721 0.17766,1.33255 0,0.2369 -0.0592,0.4738 -0.17766,0.7107 l -0.0889,0.17768 c -0.2961,0.29611 -0.68107,0.65147 -1.15487,1.06605 -0.47379,0.41455 -0.76989,0.65145 -0.88837,0.7107 h -0.0889 c -0.11832,0 -0.20728,-0.0889 -0.2665,-0.26652 -0.0592,-0.0592 -0.0889,-0.14812 -0.0889,-0.26651 v -0.0889 c -0.29611,-1.12527 -0.79952,-1.80635 -1.51022,-2.04325 -0.17768,-0.11832 -0.50339,-0.17768 -0.97721,-0.17768 -1.06603,0 -2.1913,0.53304 -3.3758,1.59908 -2.501,2.62732 -3.86344,5.2078 -5.06374,8.35068 -0.41457,1.1845 -0.50341,2.30978 -0.26652,3.37581 0,0.23689 0.0592,0.53302 0.17768,0.88838 0.17768,0.35533 0.47379,0.68109 0.88836,0.9772 0.53302,0.41456 1.30296,0.68107 2.30977,0.79952 0.17768,0.0592 0.47379,0.0889 0.88837,0.0889 h 0.17767 0.88838 c 0.2961,-0.0592 0.59223,-0.11832 0.88838,-0.17768 0.23689,-0.0592 0.44417,-0.11832 0.62183,-0.17768 0.2369,-0.0592 0.50344,-0.14812 0.79955,-0.26649 l 0.88838,-0.35534 c 0.71069,-0.35536 1.62867,-0.918 2.75394,-1.68791 1.85239,-0.97555 4.82929,4.91741 -3.64232,8.52835 -0.35535,0.11833 -0.74029,0.23691 -1.15489,0.35536 -0.35535,0.11832 -0.74029,0.20728 -1.15487,0.2665 v 0.0889 c -0.47381,0.0592 -0.91799,0.0889 -1.33256,0.0889 -0.41457,0.0592 -0.85876,0.0889 -1.33256,0.0889 h -0.17768 c -0.0592,0 -0.41458,-0.0296 -1.06603,-0.0889 -0.59225,0 -1.33254,-0.0592 -2.22092,-0.17768 -1.8952,-0.41456 -3.37582,-1.06603 -4.44187,-1.95438 -1.06603,-0.82918 -1.86557,-1.74715 -2.3986,-2.75396 -0.53301,-1.00683 -0.82913,-1.98402 -0.88835,-2.93162 -0.11832,-0.94761 -0.14812,-1.74715 -0.0889,-2.39861 0.0592,-0.11833 0.0889,-0.29613 0.0889,-0.53302 0.29611,-2.369 1.03641,-4.53069 2.22092,-6.4851 1.89874,-4.04976 5.10285,-7.42123 8.70607,-9.50562 z"
         style="font-style:normal;font-variant:normal;font-weight:normal;font-stretch:normal;font-size:medium;line-height:1.25;font-family:'Atlantic Bentley';-inkscape-font-specification:'Atlantic Bentley';letter-spacing:0px;word-spacing:0px;fill:#ffffff;fill-opacity:1;stroke:none;stroke-width:2.22092557"
         id="path819"
         inkscape:connector-curvature="0" />
      <path
         sodipodi:nodetypes="ccscccccssccccccccccccccccscccccccccccccccsssccsccccccscccccccsccccccsccccccc"
         d="m 214.89535,228.81444 c 1.83597,-2.30978 3.76075,-3.52387 5.7744,-3.64233 h 0.17768 c 1.7175,0 3.02045,0.4738 3.90883,1.42141 0.76991,0.65145 1.2437,1.59906 1.42138,2.84278 v 0.17768 l 0.0889,-0.0889 c 1.95442,-2.78356 4.02728,-4.23455 6.21861,-4.35301 h 0.17766 c 1.71752,0 2.89051,0.61507 3.90883,1.4214 2.11211,1.6724 1.44518,6.56725 0.88837,8.26181 l -0.71069,2.48744 c -2.07286,5.44868 -2.69471,8.52835 -1.86556,9.23904 0.23689,0.17768 0.533,0.26652 0.88835,0.26652 1.85037,-0.23756 3.0477,-1.75627 4.17535,-3.02049 0.9476,-1.06602 2.10251,-2.72433 3.46468,-4.97485 l 0.17766,-0.35536 2.04325,-3.99767 c 5.02711,-3.73371 3.81082,-3.35129 4.26419,1.1549 v 0.53301 c -0.17768,0.47379 -0.38496,0.94758 -0.62186,1.42139 -0.17768,0.4738 -0.35534,0.91797 -0.53302,1.33255 l -0.79953,1.42139 c -0.35534,0.76994 -0.97721,1.86558 -1.86558,3.28698 -0.82914,1.4214 -1.86557,2.84279 -3.1093,4.26417 -1.24371,1.4214 -2.66509,2.63551 -4.26417,3.64232 -1.53984,1.06605 -3.19813,1.59907 -4.97488,1.59907 -0.59226,0 -1.00681,-0.0296 -1.24371,-0.0889 -0.65146,-0.11833 -1.27333,-0.29611 -1.86559,-0.533 -0.53302,-0.23691 -1.06603,-0.56264 -1.59907,-0.97724 -0.53302,-0.35532 -1.03641,-0.85873 -1.51022,-1.51021 -1.48061,-2.36901 -1.51024,-5.65596 -0.0889,-9.86093 0,-0.0592 0.0296,-0.17765 0.0889,-0.35533 0.0592,-0.11832 0.11833,-0.2665 0.17767,-0.44418 0.0592,-0.17768 0.14812,-0.4146 0.26653,-0.7107 0.88239,-2.46972 1.27382,-3.34723 2.13207,-5.06374 0.46214,-1.14969 0.95721,-2.42099 -0.26649,-2.93163 -1.25345,-0.31278 -2.15197,1.29975 -3.287,3.55348 -0.41455,0.94759 -0.85873,1.98405 -1.33253,3.10932 -0.41457,1.12527 -0.82915,2.30975 -1.24374,3.55348 -0.41457,1.18449 -0.79952,2.36898 -1.15488,3.55348 -0.2961,0.9476 -0.59224,1.98402 -0.88835,3.10929 -0.2369,1.12527 -0.35534,2.07286 -0.35534,2.84277 v 0.0889 c 0,0.11832 -0.0296,0.23688 -0.0889,0.35534 -0.0592,0.11832 -0.20728,0.20728 -0.44417,0.26649 -0.2369,0.0592 -0.53302,0.11833 -0.88838,0.17768 -0.29611,0.0592 -0.65147,0.0889 -1.06602,0.0889 -1.48063,0 -2.60589,-0.44418 -3.37581,-1.33255 l -0.53302,-1.06604 c -0.771,-4.51847 1.1523,-9.96704 1.59903,-11.54885 0.29614,-0.82913 0.56264,-1.53983 0.79953,-2.13208 l 0.7107,-1.68789 c 0.37567,-1.6282 0.78008,-2.13268 -0.2665,-2.93164 -1.22269,0.64794 -1.8811,1.58962 -2.56161,2.56796 -0.90058,1.29475 -1.69078,2.7431 -2.41332,4.53904 -0.71068,1.7175 -1.33253,3.43505 -1.86555,5.15255 -0.77851,2.64722 -1.5791,4.90713 -1.86558,7.63999 l 0.2665,0.44419 c 0.0592,0.11833 0.11832,0.2961 0.17768,0.533 0.0592,0.29614 -0.0296,0.59228 -0.2665,0.88838 -0.53304,0.47381 -1.09567,0.76993 -1.68791,0.88837 -0.53302,0.11833 -1.00683,0.17768 -1.42141,0.17768 -0.4738,0 -0.85876,-0.0296 -1.15487,-0.0889 -2.99226,-0.86729 -3.53941,-4.18496 -3.55349,-6.66277 -0.0592,-1.65829 0.0592,-3.43503 0.35535,-5.33021 0.29612,-1.8952 0.68108,-3.73119 1.15489,-5.50791 0.11832,-0.59224 0.23688,-1.03643 0.35535,-1.33255 0.9332,-4.5955 3.93119,-9.33735 5.95209,-9.41672 0.35533,-0.0592 0.74029,-0.0889 1.15487,-0.0889 0.47379,0 0.91797,0.0296 1.33257,0.0889 0.4738,0 0.91798,0.0296 1.33253,0.0889 0.71072,0.0592 1.06605,0.41457 1.06605,1.06604 l -0.17768,0.62185 c -1.4736,3.64384 -2.98199,7.93618 -3.74063,10.36707 0.64161,-1.44717 3.00808,-6.58626 4.45132,-8.50145 z"
         style="font-style:normal;font-variant:normal;font-weight:normal;font-stretch:normal;font-size:medium;line-height:1.25;font-family:'Atlantic Bentley';-inkscape-font-specification:'Atlantic Bentley';letter-spacing:0px;word-spacing:0px;fill:#ffffff;fill-opacity:1;stroke:none;stroke-width:2.22092557"
         id="path821"
         inkscape:connector-curvature="0" />
      <path
         sodipodi:nodetypes="ccccssccccccccccsccccccsccccccccccccccccccccsccccccccccsscccccccccscccccccscccccscc"
         d="m 248.17486,230.50235 c 0.29611,-0.29614 0.53301,-0.56266 0.71069,-0.79956 0.23688,-0.23689 0.5034,-0.47378 0.79955,-0.71067 1.65828,-1.48061 3.43503,-2.54667 5.33021,-3.19814 0.65147,-0.17768 1.27334,-0.32573 1.86557,-0.44419 0.59225,-0.11833 1.18449,-0.17768 1.77674,-0.17768 0.35536,0 0.65148,0.0296 0.88838,0.0889 0.29611,0 0.59225,0.0296 0.88837,0.0889 1.06603,0.29612 1.89519,0.76992 2.48744,1.42139 l 0.35534,0.44418 c 0.23689,0.23689 0.44417,0.62186 0.62185,1.15487 0.2369,0.47381 0.41458,1.09567 0.53302,1.86561 0.17768,0.76991 0.17768,1.65828 0,2.66509 -0.0592,0.41459 -0.17766,0.91798 -0.35534,1.51023 -0.11832,0.59224 -0.32574,1.1845 -0.62185,1.77676 -1.06606,2.25054 -2.87242,3.99764 -5.41907,5.24138 -0.82915,0.41456 -1.80636,0.74031 -2.93163,0.97721 -1.12527,0.23689 -2.28015,0.35533 -3.46464,0.35533 -1.47214,-0.003 -2.83808,-0.28977 -4.17535,-0.62188 0.69707,0.926 1.75762,1.24385 2.84292,1.24385 -0.0227,0.59608 0.19968,1.19907 0.35538,1.68789 0.17766,0.35536 0.44418,0.68109 0.79952,0.97723 0.59225,0.41455 1.36216,0.68107 2.30976,0.79951 0.23689,0.0592 0.53303,0.0889 0.88837,0.0889 h 0.2665 0.79956 c 0.29611,-0.0592 0.59223,-0.1185 0.88835,-0.17768 0.29613,-0.0592 0.53303,-0.11832 0.71071,-0.17768 0.23688,-0.0592 0.4738,-0.14812 0.7107,-0.2665 0.11832,-0.0592 0.26649,-0.0889 0.44417,-0.0889 0.17768,-0.0592 0.35534,-0.14812 0.53302,-0.26649 0.53304,-0.29614 1.18449,-0.6811 1.95443,-1.1549 0.82913,-0.47379 1.74712,-1.15486 2.75394,-2.04324 0.40109,-0.0589 1.265,-1.20779 1.86558,-1.77677 l 1.15487,-1.15488 c 0.53302,-0.59224 1.03643,-1.18448 1.51023,-1.77672 l 1.59909,-1.95444 c 0.11832,-0.11832 0.17768,-0.20728 0.17768,-0.2665 l 0.0889,-0.0889 1.15488,-1.59906 c 0.41458,-0.53302 0.74032,-1.0068 0.97721,-1.4214 0.29614,-0.41457 0.5034,-0.71067 0.62186,-0.88835 v -0.0889 c 0.11832,-0.11832 0.17768,-0.20728 0.17768,-0.26649 0.2369,-0.2369 0.41458,-0.35536 0.53302,-0.35536 0.17768,0 0.35535,0.0889 0.533,0.2665 0.29615,0.41459 0.59227,1.00684 0.88838,1.77676 1.22935,3.81932 -1.71301,6.74395 -3.64229,9.23911 -0.94759,1.30293 -2.10249,2.60588 -3.46465,3.90883 -1.30295,1.30293 -2.78355,2.51704 -4.44184,3.64231 -1.59907,1.18449 -3.3758,2.13208 -5.33025,2.84277 -0.41456,0.11833 -0.79951,0.2369 -1.15487,0.35536 -0.35533,0.11832 -0.74029,0.20728 -1.15487,0.2665 l -0.0889,0.0889 c -0.4146,0.0592 -0.82917,0.0889 -1.24374,0.0889 -0.41457,0.0592 -0.85875,0.0889 -1.33256,0.0889 h -0.17766 c -0.11832,0 -0.50342,-0.0296 -1.15487,-0.0889 -0.59226,0 -1.33257,-0.0592 -2.22094,-0.17768 -1.89518,-0.41456 -3.37582,-1.06603 -4.44185,-1.95441 -1.06603,-0.82915 -1.83597,-1.74712 -2.30977,-2.75395 -0.53303,-1.00681 -0.82913,-1.98403 -0.88836,-2.93162 -0.11832,-0.94759 -0.14812,-1.74713 -0.0889,-2.39859 0,-0.11832 0.0296,-0.20729 0.0889,-0.2665 v -0.26653 c 0.11832,-1.24372 0.41457,-2.4282 0.88836,-3.55348 0.41459,-1.12527 0.88838,-2.19132 1.42139,-3.19813 0.53304,-1.00683 1.09566,-1.89518 1.68792,-2.66512 0.53301,-0.82914 1.03641,-1.51021 1.51022,-2.04325 z m 8.8837,0.97721 c -2.389,2.03884 -3.98725,4.43631 -5.4064,6.7386 0.27856,0.0658 0.67821,0.17528 1.05338,0.19073 h 0.53302 0.53301 c 1.36217,0 2.48744,-0.20729 3.3758,-0.62186 0.94761,-0.41458 1.71753,-0.82915 2.30979,-1.24371 l 0.26649,-0.26652 c 0.35535,-0.35536 0.6515,-0.7107 0.88838,-1.06605 1.06173,-1.41058 0.7581,-3.54564 -0.44421,-4.17535 -0.2369,-0.1185 -0.56264,-0.17767 -0.97722,-0.17767 -0.76991,0 -1.4806,0.20728 -2.13207,0.62187 z"
         style="font-style:normal;font-variant:normal;font-weight:normal;font-stretch:normal;font-size:medium;line-height:1.25;font-family:'Atlantic Bentley';-inkscape-font-specification:'Atlantic Bentley';letter-spacing:0px;word-spacing:0px;fill:#ffffff;fill-opacity:1;stroke:none;stroke-width:2.22092557"
         id="path823"
         inkscape:connector-curvature="0" />
    </g>
    <g
       id="g869"
       transform="translate(0,-0.34815052)"
       style="fill:#ffffff">
      <path
         id="path1366"
         d="m 37.082682,202.43907 v -2.62792 c 0,-0.43361 0.354769,-0.78839 0.788379,-0.78839 h 15.241935 c 0.43361,0 0.78838,0.35478 0.78838,0.78839 v 2.62792 c 0,0.4336 -0.35477,0.78837 -0.78838,0.78837 H 37.871061 c -0.43361,0 -0.788379,-0.35477 -0.788379,-0.78837 z m 45.200224,30.22106 c 0,-8.69842 -7.0691,-15.7675 -15.76751,-15.7675 -8.69842,0 -15.76752,7.06908 -15.76752,15.7675 0,8.69842 7.0691,15.76752 15.76752,15.76752 8.69841,0 15.76751,-7.0691 15.76751,-15.76752 z m -4.20466,0 c 0,6.37271 -5.19014,11.56285 -11.56285,11.56285 -6.37272,0 -11.56285,-5.19014 -11.56285,-11.56285 0,-6.3727 5.19013,-11.56284 11.56285,-11.56284 6.37271,0 11.56285,5.19014 11.56285,11.56284 z m -15.76752,0 c 0,-2.31257 1.89209,-4.20467 4.20467,-4.20467 1.15628,0 2.10234,-0.94605 2.10234,-2.10234 0,-1.15627 -0.94606,-2.10233 -2.10234,-2.10233 -4.63828,0 -8.40935,3.77106 -8.40935,8.40934 0,1.15629 0.94605,2.10233 2.10234,2.10233 1.15629,0 2.10234,-0.94604 2.10234,-2.10233 z m 37.842064,-27.33035 v 46.25138 c 0,3.48199 -2.825024,6.30699 -6.307034,6.30699 H 39.185021 c -3.482001,0 -6.30701,-2.825 -6.30701,-6.30699 v -37.84204 c 0,-3.48199 2.825009,-6.30701 6.30701,-6.30701 h 17.869865 l 4.41489,-5.88654 c 1.19571,-1.58991 3.06154,-2.52281 5.04562,-2.52281 h 27.33036 c 3.48201,0 6.307034,2.82502 6.307034,6.30702 z m -37.842064,2.10233 h 31.53503 c 0.73582,0 1.44536,0.13134 2.10235,0.35477 v -2.4571 c 0,-1.15629 -0.94606,-2.10234 -2.10235,-2.10234 h -27.33036 c -0.65699,0 -1.28769,0.31535 -1.68188,0.84094 z m 33.63738,6.30701 c 0,-1.1563 -0.94606,-2.10235 -2.10235,-2.10235 H 39.185021 c -1.15629,0 -2.102339,0.94605 -2.102339,2.10235 v 37.84204 c 0,1.15627 0.946049,2.10233 2.102339,2.10233 h 54.660735 c 1.15629,0 2.10235,-0.94606 2.10235,-2.10233 z"
         inkscape:connector-curvature="0"
         style="fill:#ffffff;stroke-width:0.131396" />
      <rect
         style="fill:#ffffff;fill-opacity:1;stroke:none;stroke-width:0.01355712;stroke-miterlimit:4;stroke-dasharray:none;stroke-opacity:1"
         id="rect839-9"
         width="13.229167"
         height="2.6458333"
         x="12.003006"
         y="249.95064" />
      <rect
         style="fill:#ffffff;fill-opacity:1;stroke:none;stroke-width:0.01917266;stroke-miterlimit:4;stroke-dasharray:none;stroke-opacity:1"
         id="rect839-9-0"
         width="26.458334"
         height="2.6458333"
         x="-1.226158"
         y="242.01314" />
      <rect
         style="fill:#ffffff;fill-opacity:1;stroke:none;stroke-width:0.02348162;stroke-miterlimit:4;stroke-dasharray:none;stroke-opacity:1"
         id="rect839-9-0-2"
         width="39.6875"
         height="2.6458333"
         x="-14.455326"
         y="234.07564" />
      <rect
         style="fill:#ffffff;fill-opacity:1;stroke:none;stroke-width:0.02711424;stroke-miterlimit:4;stroke-dasharray:none;stroke-opacity:1"
         id="rect839-9-8"
         width="52.916668"
         height="2.6458333"
         x="-27.68449"
         y="226.13814" />
      <rect
         style="fill:#ffffff;fill-opacity:1;stroke:none;stroke-width:0.02348162;stroke-miterlimit:4;stroke-dasharray:none;stroke-opacity:1"
         id="rect839-9-0-8"
         width="39.6875"
         height="2.6458333"
         x="-14.455326"
         y="218.20064" />
      <rect
         style="fill:#ffffff;fill-opacity:1;stroke:none;stroke-width:0.01917266;stroke-miterlimit:4;stroke-dasharray:none;stroke-opacity:1"
         id="rect839-9-0-2-7"
         width="26.458334"
         height="2.6458333"
         x="-1.226158"
         y="210.26314" />
    </g>
  </g>
</svg>
