<?xml version="1.0" encoding="UTF-8" standalone="no"?>
<svg
   xmlns:dc="http://purl.org/dc/elements/1.1/"
   xmlns:cc="http://creativecommons.org/ns#"
   xmlns:rdf="http://www.w3.org/1999/02/22-rdf-syntax-ns#"
   xmlns:svg="http://www.w3.org/2000/svg"
   xmlns="http://www.w3.org/2000/svg"
   xmlns:sodipodi="http://sodipodi.sourceforge.net/DTD/sodipodi-0.dtd"
   xmlns:inkscape="http://www.inkscape.org/namespaces/inkscape"
   viewBox="0 0 320 512"
   version="1.1"
   id="svg4"
   sodipodi:docname="mobile-alt.svg"
   inkscape:version="0.92.2 (5c3e80d, 2017-08-06)">
  <metadata
     id="metadata10">
    <rdf:RDF>
      <cc:Work
         rdf:about="">
        <dc:format>image/svg+xml</dc:format>
        <dc:type
           rdf:resource="http://purl.org/dc/dcmitype/StillImage" />
      </cc:Work>
    </rdf:RDF>
  </metadata>
  <defs
     id="defs8" />
  <sodipodi:namedview
     pagecolor="#ffffff"
     bordercolor="#666666"
     borderopacity="1"
     objecttolerance="10"
     gridtolerance="10"
     guidetolerance="10"
     inkscape:pageopacity="0"
     inkscape:pageshadow="2"
     inkscape:window-width="1920"
     inkscape:window-height="1017"
     id="namedview6"
     showgrid="false"
     inkscape:zoom="0.921875"
     inkscape:cx="380.43623"
     inkscape:cy="280.45385"
     inkscape:window-x="1912"
     inkscape:window-y="-8"
     inkscape:window-maximized="1"
     inkscape:current-layer="svg4" />
  <path
     style="stroke:none;stroke-width:20;stroke-miterlimit:4;stroke-dasharray:none;stroke-opacity:1"
     d="M 48,10 C 26.908805,10 10,26.908805 10,48 v 416 c 0,21.09119 16.908805,38 38,38 h 224 c 21.09119,0 38,-16.90881 38,-38 V 48 C 310,26.908805 293.09119,10 272,10 Z m 0,12 h 224 c 14.25455,0 26,11.745455 26,26 v 416 c 0,14.25455 -11.74545,26 -26,26 H 48 C 33.745455,490 22,478.25455 22,464 V 48 C 22,33.745455 33.745455,22 48,22 Z m 28,52 c -1.145455,0 -2,0.854545 -2,2 v 280 c 0,1.14545 0.854545,2 2,2 h 168 c 1.14545,0 2,-0.85455 2,-2 V 76 c 0,-1.145455 -0.85455,-2 -2,-2 z M 86,86 H 234 V 346 H 86 V 96 Z m 74,308 c -12.31394,0 -22,9.68606 -22,22 0,12.31394 9.68606,22 22,22 12.31394,0 22,-9.68606 22,-22 0,-12.31394 -9.68606,-22 -22,-22 z"
     id="path2-8-0"
     inkscape:connector-curvature="0" />
</svg>
