<svg xmlns="http://www.w3.org/2000/svg" viewBox="0 0 320 512"><path d="M 48,10 C 26.908805,10 10,26.908805 10,48 v 416 c 0,21.09119 16.908805,38 38,38 h 224 c 21.09119,0 38,-16.90881 38,-38 V 48 C 310,26.908805 293.09119,10 272,10 Z m 0,12 h 224 c 14.25455,0 26,11.745455 26,26 v 416 c 0,14.25455 -11.74545,26 -26,26 H 48 C 33.745455,490 22,478.25455 22,464 V 48 C 22,33.745455 33.745455,22 48,22 Z m 28,52 c -1.145455,0 -2,0.854545 -2,2 v 280 c 0,1.14545 0.854545,2 2,2 h 168 c 1.14545,0 2,-0.85455 2,-2 V 76 c 0,-1.145455 -0.85455,-2 -2,-2 z M 86,86 H 234 V 346 H 86 V 96 Z m 74,308 c -12.31394,0 -22,9.68606 -22,22 0,12.31394 9.68606,22 22,22 12.31394,0 22,-9.68606 22,-22 0,-12.31394 -9.68606,-22 -22,-22 z" /></svg>
