<svg xmlns="http://www.w3.org/2000/svg" viewBox="0 0 512 512"><path d="m 480.06209,9.8689311 c -3.58979,0.1021255 -7.29863,1.0983389 -10.85742,3.1562499 a 10.001,10.001 0 0 1 -0.01,0.0059 L 21.204666,271.42557 l -0.0098,0.006 C 4.8306474,280.90432 6.3993184,303.64665 23.8101,310.82415 a 10.001,10.001 0 0 1 0.01172,0.004 l 140.19922,58 a 10.001,10.001 0 0 1 6.17774,9.24219 v 102 c 0,10.92781 6.3238,17.7463 14.5957,20.66992 8.2719,2.92361 17.59629,1.53523 24.37891,-6.71875 a 10.001,10.001 0 0 1 0.002,-0.004 l 60.70117,-73.80078 a 10.001,10.001 0 0 1 11.53906,-2.89063 l 126.40039,52.20118 a 10.001,10.001 0 0 1 0.006,0.002 c 13.30678,5.50385 27.92967,-2.67003 30.08985,-16.95508 a 10.001,10.001 0 0 1 0.004,-0.0215 l 64,-417.099615 a 10.001,10.001 0 0 0 0,-0.002 c 2.19619,-14.301962 -8.15044,-25.057436 -20.32422,-25.5722653 -0.50724,-0.021451 -1.01646,-0.024355 -1.52929,-0.00977 z m 0.36523,12.2031249 a 10.001,10.001 0 0 1 9.65625,11.513672 l -64,417.099612 a 10.001,10.001 0 0 1 -13.70312,7.72656 L 206.18123,373.21073 a 10.001,10.001 0 0 1 -3.81641,-15.70117 L 370.12849,159.2205 152.18514,344.98026 a 10.001,10.001 0 0 1 -10.29688,1.63477 l -113.5,-46.80078 A 10.001,10.001 0 0 1 27.20076,281.908 l 448,-258.500007 a 10.001,10.001 0 0 1 5.22656,-1.335937 z M 192.11482,381.26932 a 10.001,10.001 0 0 1 3.90039,0.75586 l 54.5,22.5 a 10.001,10.001 0 0 1 3.90821,15.59375 l -54.5,66.30079 a 10.001,10.001 0 0 1 -17.72461,-6.34961 v -88.80079 a 10.001,10.001 0 0 1 9.91601,-10 z" /></svg>
